<svg xmlns="http://www.w3.org/2000/svg" viewBox="0 0 1000 1000">
  <rect width="1000" height="1000" rx="100" fill="#f4ecd8"/>
  <g fill="#1a1208" transform="translate(161 764) scale(0.9 -0.9)">
    <path d="M741 224Q741 154 670 77Q592 2 515 -72Q515 -84 520.5 -94.5Q526 -105 533 -105Q537 -105 548.0 -99.5Q559 -94 562 -94Q570 -94 576.5 -100.5Q583 -107 583 -116Q583 -129 576 -138Q566 -151 547 -151Q522 -151 504 -138Q481 -122 481 -95Q481 -62 559 48Q604 112 621 164Q624 173 625.0 189.0Q626 205 627 213Q613 224 584.5 230.5Q556 237 526 237Q488 237 426 210Q347 176 300 121Q330 121 398.0 110.5Q466 100 477 100Q484 100 495.5 104.0Q507 108 517 117L535 108L450 -19Q380 9 339 20Q288 34 246 34Q178 34 124 6Q76 -19 76 -40Q76 -52 85.5 -68.0Q95 -84 95 -89Q95 -107 93 -112Q88 -124 73 -124Q57 -124 47.0 -112.0Q37 -100 37 -83Q37 -46 109.0 35.0Q181 116 181 147Q181 171 174.5 179.0Q168 187 154 187Q134 187 108 169Q100 163 86 151L85 154Q85 180 89.5 198.5Q94 217 107.5 233.0Q121 249 138.5 253.5Q156 258 181 258Q181 319 150 344Q130 360 95 360Q78 360 66.0 356.5Q54 353 25 335L21 342Q38 398 76 418Q98 430 117 430Q134 430 160 421Q160 429 160 433Q160 459 164.0 488.0Q168 517 178 538Q210 597 224.5 614.0Q239 631 263 643Q237 630 195 630Q166 630 126 648Q104 658 92 658Q69 658 50 646Q37 637 18 615L12 621Q29 684 54.5 706.5Q80 729 117 729Q155 729 199.5 711.5Q244 694 270 694Q315 694 340.5 699.5Q366 705 409 723L416 719Q351 684 311 630Q267 571 267 505V224Q267 177 238 127Q229 111 209 86L212 81Q254 110 274 133Q336 202 336 286V538Q336 598 404.5 659.0Q473 720 560 738L566 733Q541 721 526 711Q437 651 437 566V438L621 581Q661 542 681 517Q741 442 741 385ZM630 379Q625 411 621 422Q613 443 594 467Q586 477 564 494Q561 496 554 501L437 412V379Q464 368 482.5 364.0Q501 360 535 360Q571 360 588.5 364.0Q606 368 630 379ZM630 236V356Q587 341 586 341Q574 339 533 339Q524 339 520 339Q495 339 479.0 341.5Q463 344 437 355V240Q458 250 484.0 255.5Q510 261 529 261Q551 261 577.0 255.5Q603 250 630 236Z"/>
  </g>
</svg>
